# xmcd CD database file
#
# Track frame offsets:
#	150
#	12339
#	24833
#	39288
#	58350
#	69585
#	85110
#	97762
#	109024
#	125156
#	136846
#	150196
#	165999
#	179667
#	191574
#
# Disc length: 2719 seconds
#
# Revision: 0
# Processed by: cddbd v1.5.2PL0 Copyright (c) Steve Scherf et al.
# Submitted via: CDex 1.51
#
DISCID=b60a9d0f
DTITLE=Larry Pierce - Pussy Whipped
DYEAR=2007
DGENRE=Country
TTITLE0=Barter Fucking
TTITLE1=Every Time I Shit
TTITLE2=High Maintenance Girl
TTITLE3=In a Heart Beat
TTITLE4=Itty Bitty Titty Louise
TTITLE5=My Pecker Started Talking Again
TTITLE6=Pussy Whipped
TTITLE7=Shitting
TTITLE8=She Only Likes Girls
TTITLE9=Sleep Right Next to Your Pussy
TTITLE10=The Shit Done Hit the Fan
TTITLE11=Turn the Fucking Lights Out
TTITLE12=Will You Swallow my Cum?
TTITLE13=Worthless Cunt
TTITLE14=Yeast Infection
EXTD=YEAR: 2007
EXTT0=
EXTT1=
EXTT2=
EXTT3=
EXTT4=
EXTT5=
EXTT6=
EXTT7=
EXTT8=
EXTT9=
EXTT10=
EXTT11=
EXTT12=
EXTT13=
EXTT14=
PLAYORDER=
